<svg id="check-circle-icon" xmlns="http://www.w3.org/2000/svg" width="32" height="32" viewBox="0 0 32 32">
  <g id="checkmark-circle">
    <rect id="Rectangle_1033" data-name="Rectangle 1033" width="32" height="32" fill="#15d48e" opacity="0"/>
    <path id="Path_1997" data-name="Path 1997" d="M10.307,13.12a1.354,1.354,0,0,0-1.914,1.914l4.044,4.044a1.308,1.308,0,0,0,1.928-.067L23.8,8.226a1.348,1.348,0,0,0-2.022-1.78l-8.385,9.706Z" transform="translate(2.783 2.1)" fill="#15d48e"/>
    <path id="Path_1998" data-name="Path 1998" d="M27.6,14.133a1.348,1.348,0,0,0-1.348,1.348A10.781,10.781,0,1,1,15.463,4.7a11.85,11.85,0,0,1,2.561.3,1.348,1.348,0,1,0,.634-2.615A14.209,14.209,0,0,0,15.463,2,13.481,13.481,0,1,0,28.944,15.481,1.348,1.348,0,0,0,27.6,14.133Z" transform="translate(0.714 0.696)" fill="#15d48e"/>
  </g>
</svg>
