<svg id="cloud-shield-icon" xmlns="http://www.w3.org/2000/svg" width="34.422" height="42.931" viewBox="0 0 34.422 42.931">
  <path id="Path_142" data-name="Path 142" d="M99.115,26.026,82.452,17.843a.544.544,0,0,0-.478,0L65.308,26a.546.546,0,0,0-.308.486V42.1a14.851,14.851,0,0,0,5.794,10.95L81.9,60.625a.544.544,0,0,0,.611,0l11.108-7.576a13.545,13.545,0,0,0,4.105-4.835A13.527,13.527,0,0,0,99.422,42.1V26.511A.545.545,0,0,0,99.115,26.026ZM98.341,42.1a13.639,13.639,0,0,1-5.322,10.056L82.214,59.524,71.4,52.156A13.641,13.641,0,0,1,66.081,42.1V26.826l16.13-7.9,16.13,7.918Z" transform="translate(-65 -17.788)" fill="#e9533a"/>
  <path id="Path_143" data-name="Path 143" d="M122.113,111.868a6.626,6.626,0,0,0-5.494,6.536v.071a5.407,5.407,0,0,0,5.383,5.4h3.212V126.4h-3a.511.511,0,0,0-.512.534v2.244a1.674,1.674,0,0,0-.839.487,1.926,1.926,0,1,0,2.717,0h.014a2.075,2.075,0,0,0-.81-.487v-1.7h2.974a.546.546,0,0,0,.541-.548v-3.057h2.343v5.613a1.933,1.933,0,1,0,1.081,0v-5.613h2.523v3.057a.527.527,0,0,0,.517.548h2.817v1.7a2.073,2.073,0,0,0-.81.487,1.935,1.935,0,1,0,2.729,0,1.672,1.672,0,0,0-.838-.487v-2.244a.511.511,0,0,0-.512-.534h-2.822v-2.523h3.032a5.407,5.407,0,0,0,5.383-5.4.634.634,0,0,0-.014-.132,4.71,4.71,0,0,0-4.69-4.592c-.089,0-.18,0-.273,0a7.529,7.529,0,0,0-14.649-1.885Zm.7,19.765a.844.844,0,1,1,.251-.6A.849.849,0,0,1,122.812,131.633Zm7.216-.288a.849.849,0,1,1-.249-.6.849.849,0,0,1,.249.6Zm6.719.288a.849.849,0,1,1,0-1.2.849.849,0,0,1,0,1.2Zm-7.5-23.819a6.452,6.452,0,0,1,6.446,6.444c0,.025,0,.05,0,.075a.541.541,0,0,0,.646.543,3.695,3.695,0,0,1,4.3,3.578.762.762,0,0,0,.011.129,4.324,4.324,0,0,1-4.3,4.213H122a4.324,4.324,0,0,1-4.3-4.3c0-.011,0-.042,0-.053s0-.067,0-.067h0a5.55,5.55,0,0,1,4.891-5.5.535.535,0,0,0,.457-.384A6.467,6.467,0,0,1,129.251,107.814Z" transform="translate(-111.967 -98.718)" fill="#e9533a"/>
</svg>
