<svg id="cloud" xmlns="http://www.w3.org/2000/svg" xmlns:xlink="http://www.w3.org/1999/xlink" width="69.999" height="70" viewBox="0 0 69.999 70">
  <defs>
    <linearGradient id="linear-gradient" x1="0.5" x2="0.5" y2="1" gradientUnits="objectBoundingBox">
      <stop offset="0" stop-color="#009cff"/>
      <stop offset="1" stop-color="#3fa2ff"/>
    </linearGradient>
  </defs>
  <path id="Path_123" data-name="Path 123" d="M68.832,30.333h-2.7A31.3,31.3,0,0,0,39.666,3.87v-2.7A1.167,1.167,0,0,0,38.5,0h-7a1.167,1.167,0,0,0-1.167,1.167v2.7A31.3,31.3,0,0,0,3.869,30.333h-2.7A1.167,1.167,0,0,0,0,31.5v7a1.167,1.167,0,0,0,1.167,1.167h2.7A31.3,31.3,0,0,0,30.333,66.13v2.7A1.167,1.167,0,0,0,31.5,70h7a1.167,1.167,0,0,0,1.167-1.167v-2.7A31.3,31.3,0,0,0,66.129,39.666h2.7A1.167,1.167,0,0,0,70,38.5v-7A1.167,1.167,0,0,0,68.832,30.333Zm-36.166-28h4.667V7H32.666ZM2.333,32.666H7v4.667H2.333Zm35,35H32.666V63h4.667Zm2.333-3.9V61.833A1.167,1.167,0,0,0,38.5,60.666H36.166V52.984L38.3,55.117l1.65-1.65L35,48.516,30.05,53.467l1.65,1.65,2.133-2.133v7.682H31.5a1.167,1.167,0,0,0-1.167,1.167V63.77a28.974,28.974,0,0,1-24.1-24.1H8.166A1.167,1.167,0,0,0,9.333,38.5V36.166h4.184L11.384,38.3l1.65,1.65L17.983,35l-4.949-4.95-1.65,1.65,2.133,2.134H9.333V31.5a1.167,1.167,0,0,0-1.167-1.167H6.229a28.974,28.974,0,0,1,24.1-24.1V8.167A1.167,1.167,0,0,0,31.5,9.333h2.333v7.682L31.7,14.883l-1.65,1.65L35,21.484l4.949-4.951-1.65-1.65-2.133,2.133V9.333H38.5a1.167,1.167,0,0,0,1.167-1.167V6.23a28.974,28.974,0,0,1,24.1,24.1H61.832A1.167,1.167,0,0,0,60.665,31.5v2.333H56.482L58.615,31.7l-1.65-1.65L52.016,35l4.949,4.95,1.65-1.65-2.133-2.134h4.184V38.5a1.167,1.167,0,0,0,1.167,1.167h1.937A28.974,28.974,0,0,1,39.666,63.77Zm28-26.437H63V32.666h4.667Zm0,0" transform="translate(0 0)" fill="url(#linear-gradient)"/>
  <path id="Path_124" data-name="Path 124" d="M153.65,167.367h-.087A8.589,8.589,0,0,0,137.3,164.92a9.815,9.815,0,0,0,.4,19.623H153.65a8.588,8.588,0,0,0,0-17.176Zm0,14.723H137.7a7.361,7.361,0,0,1,0-14.723h.1a.678.678,0,0,1,.1.006,1.227,1.227,0,0,0,1.38-.806A6.134,6.134,0,0,1,151.2,168.7a1.227,1.227,0,0,0,1.454,1.206,5.278,5.278,0,0,1,1-.09,6.134,6.134,0,0,1,0,12.269Zm0,0" transform="translate(-110.062 -137.274)" fill="url(#linear-gradient)"/>
</svg>
