<svg xmlns="http://www.w3.org/2000/svg" xmlns:xlink="http://www.w3.org/1999/xlink" width="50" height="51" viewBox="0 0 50 51">
  <defs>
    <clipPath id="clip-path">
      <rect id="Rectangle_1602" data-name="Rectangle 1602" width="44" height="44" transform="translate(563 6247)" fill="#105285"/>
    </clipPath>
  </defs>
  <g id="comment-user-icon" transform="translate(-557 -6247)">
    <circle id="Ellipse_64" data-name="Ellipse 64" cx="9" cy="9" r="9" transform="translate(557 6280)" fill="#15d48e"/>
    <g id="Mask_Group_315" data-name="Mask Group 315" clip-path="url(#clip-path)">
      <path id="speech" d="M34.222,28.649a9.778,9.778,0,0,0-4.644-18.382c-.489,0-.978.049-1.467.1V3.422a.981.981,0,0,0-.978-.978H5.622a.981.981,0,0,0-.978.978V17.111a.981.981,0,0,0,.978.978H16.916l2.933,2.444a9.759,9.759,0,0,0,5.084,8.116A14.675,14.675,0,0,0,14.911,42.533v2.933a.981.981,0,0,0,.978.978H43.267a.981.981,0,0,0,.978-.978V42.533A14.675,14.675,0,0,0,34.222,28.649ZM19.8,17.111v.831l-1.907-1.613a1.03,1.03,0,0,0-.636-.244H6.6V4.4H26.156V16.133H20.778A.981.981,0,0,0,19.8,17.111Zm1.956,2.933A8.567,8.567,0,0,1,22,18.089h5.133a.981.981,0,0,0,.978-.978V12.369a7.462,7.462,0,0,1,1.467-.147,7.822,7.822,0,1,1-7.822,7.822Zm9.924,9.973-1.173,1.76H28.6l-1.173-1.76a15.28,15.28,0,0,1,2.1-.2A10.674,10.674,0,0,1,31.68,30.018ZM25.324,44.489H16.867V42.533a12.7,12.7,0,0,1,8.556-12.027l1.662,2.444Zm1.956,0,1.662-10.756h1.271l1.662,10.756Zm15.009,0H33.831L32.071,33l1.662-2.444a12.593,12.593,0,0,1,8.556,11.978Zm-3.911-7.333a.978.978,0,1,1,0,1.956H36.422a.978.978,0,1,1,0-1.956ZM22.244,10.267a.981.981,0,0,1-.978.978H11.489a.978.978,0,0,1,0-1.956h9.778A.981.981,0,0,1,22.244,10.267Z" transform="translate(560.556 6244.556)" fill="#105285"/>
    </g>
  </g>
</svg>
