<svg xmlns="http://www.w3.org/2000/svg" xmlns:xlink="http://www.w3.org/1999/xlink" width="56" height="57" viewBox="0 0 56 57">
  <defs>
    <clipPath id="clip-path">
      <rect id="Rectangle_1054" data-name="Rectangle 1054" width="50" height="50" transform="translate(1074 3612)" fill="#105285"/>
    </clipPath>
  </defs>
  <g id="cpu" transform="translate(-1068 -3612)">
    <circle id="Ellipse_64" data-name="Ellipse 64" cx="9" cy="9" r="9" transform="translate(1068 3651)" fill="#911cbc"/>
    <g id="Mask_Group_80" data-name="Mask Group 80" clip-path="url(#clip-path)">
      <path id="cpu-2" data-name="cpu" d="M53.571,23.81a1.19,1.19,0,1,0,0-2.381H50V16.667h3.571a1.19,1.19,0,1,0,0-2.381H50V10.714a1.194,1.194,0,0,0-1.19-1.19H45.238V5.952a1.19,1.19,0,1,0-2.381,0V9.524H38.1V5.952a1.19,1.19,0,1,0-2.381,0V9.524H30.952V5.952a1.19,1.19,0,1,0-2.381,0V9.524H23.81V5.952a1.19,1.19,0,1,0-2.381,0V9.524H16.667V5.952a1.19,1.19,0,1,0-2.381,0V9.524H10.714a1.194,1.194,0,0,0-1.19,1.19v3.571H5.952a1.19,1.19,0,1,0,0,2.381H9.524v4.762H5.952a1.19,1.19,0,1,0,0,2.381H9.524v4.762H5.952a1.19,1.19,0,1,0,0,2.381H9.524v4.762H5.952a1.19,1.19,0,1,0,0,2.381H9.524v4.762H5.952a1.19,1.19,0,1,0,0,2.381H9.524V48.81A1.194,1.194,0,0,0,10.714,50h3.571v3.571a1.19,1.19,0,1,0,2.381,0V50h4.762v3.571a1.19,1.19,0,1,0,2.381,0V50h2.976a1.194,1.194,0,0,0,1.19-1.19,1.786,1.786,0,1,1,3.571,0A1.194,1.194,0,0,0,32.738,50h2.976v3.571a1.19,1.19,0,1,0,2.381,0V50h4.762v3.571a1.19,1.19,0,1,0,2.381,0V50H48.81A1.194,1.194,0,0,0,50,48.81V45.238h3.571a1.19,1.19,0,1,0,0-2.381H50V38.1h3.571a1.19,1.19,0,1,0,0-2.381H50V30.952h3.571a1.19,1.19,0,1,0,0-2.381H50V23.81Zm-5.952,23.81H33.75a4.16,4.16,0,0,0-7.976,0H11.9V11.9H47.619ZM41.667,28.571H39.286V21.429a1.194,1.194,0,0,0-1.19-1.19H30.952V17.857a1.19,1.19,0,1,0-2.381,0v2.381H21.429a1.194,1.194,0,0,0-1.19,1.19v7.143H17.857a1.19,1.19,0,1,0,0,2.381h2.381V38.1a1.194,1.194,0,0,0,1.19,1.19H38.1a1.194,1.194,0,0,0,1.19-1.19V30.952h2.381a1.19,1.19,0,0,0,0-2.381ZM36.9,36.9H22.619V22.619H36.9Z" transform="translate(1069.238 3607.238)" fill="#105285"/>
    </g>
  </g>
</svg>
