<svg xmlns="http://www.w3.org/2000/svg" width="147.697" height="147.697" viewBox="0 0 147.697 147.697">
  <path id="dell" d="M110.545,89.849V57.38h7.52V83.252h13.17v6.585h-20.69ZM50.334,69.615,68.673,55.51c1.729,1.4,3.446,2.819,5.176,4.228l-17.4,13.17,3.76,3.292,17.4-13.637c1.729,1.4,3.446,2.819,5.176,4.234q-8.657,6.871-17.4,13.637l3.754,3.3L86.557,69.608l-.006-12.222h7.526V83.258h13.637v6.585H87.024V77.615Q77.84,84.658,68.679,91.72L50.334,77.615A15.259,15.259,0,0,1,42.26,88.04a16.314,16.314,0,0,1-5.631,1.7,28.333,28.333,0,0,1-3.391.1h-11.6V57.387H35.017a15.656,15.656,0,0,1,9.619,3.428,16.8,16.8,0,0,1,5.7,8.8M28.7,63.971V83.726l5.865-.006A8.474,8.474,0,0,0,40.943,80.5a10.708,10.708,0,0,0,1.12-11.625,9.194,9.194,0,0,0-6.006-4.714,13.934,13.934,0,0,0-3.12-.2H28.7ZM72.741,0h2.074a73.479,73.479,0,0,1,33.263,8.45,74.47,74.47,0,0,1,25.392,21.89,73.418,73.418,0,0,1,14.228,42.4v2.215A73.708,73.708,0,0,1,74.969,147.7H72.747A73.917,73.917,0,0,1,0,74.963V72.741A73.381,73.381,0,0,1,12.259,33.38,75.147,75.147,0,0,1,41.244,7.7,73.079,73.079,0,0,1,72.741,0M71.8,7.569a66.294,66.294,0,0,0-60,42.758,66.342,66.342,0,0,0,23.01,77.178,65.836,65.836,0,0,0,29.453,11.976,67.047,67.047,0,0,0,26.93-1.6,66.285,66.285,0,0,0,47.762-51.337,67.172,67.172,0,0,0-.751-28.813A66.175,66.175,0,0,0,71.8,7.569Z" fill="#fff"/>
</svg>
