<svg xmlns="http://www.w3.org/2000/svg" xmlns:xlink="http://www.w3.org/1999/xlink" width="32" height="32" viewBox="0 0 32 32">
  <defs>
    <clipPath id="clip-path">
      <rect id="Rectangle_1016" data-name="Rectangle 1016" width="32" height="32" fill="#e9533a"/>
    </clipPath>
    <clipPath id="clip-path-2">
      <rect id="Rectangle_266" data-name="Rectangle 266" width="27.442" height="32" transform="translate(39.84 80.666)" fill="#e9533a" stroke="#707070" stroke-width="0.091"/>
    </clipPath>
  </defs>
  <g id="domain2-icon" clip-path="url(#clip-path)">
    <g id="Mask_Group_7" data-name="Mask Group 7" transform="translate(-37.561 -80.666)" clip-path="url(#clip-path-2)">
      <g id="domain_1_" data-name="domain (1)" transform="translate(39.84 86.368)">
        <g id="Group_182" data-name="Group 182">
          <g id="Group_181" data-name="Group 181">
            <path id="Path_182" data-name="Path 182" d="M27.011,7.206H23.424A10.308,10.308,0,0,0,13.8.34h-.183A10.308,10.308,0,0,0,3.989,7.206H.4a.4.4,0,0,0-.4.4v5.809a.4.4,0,0,0,.4.4H3.9a10.354,10.354,0,0,0,1.83,3.349c.008.01.016.02.025.03a10.29,10.29,0,0,0,13.327,2.245.4.4,0,0,0-.419-.685,9.432,9.432,0,0,1-1.389.7,9.015,9.015,0,0,0,2.013-2.818,13.151,13.151,0,0,1,1.411.445,9.607,9.607,0,0,1-.758.737.4.4,0,1,0,.527.606,10.287,10.287,0,0,0,3.048-4.607h3.5a.4.4,0,0,0,.4-.4V7.608A.4.4,0,0,0,27.011,7.206ZM21.245,4.855a9.428,9.428,0,0,1,1.323,2.352h-2.4A13.113,13.113,0,0,0,19.607,5.4a13.1,13.1,0,0,0,1.638-.545Zm-1.86-1.829A9.629,9.629,0,0,1,20.7,4.208a13.126,13.126,0,0,1-1.413.446,9.01,9.01,0,0,0-2.025-2.826,9.486,9.486,0,0,1,2.124,1.2ZM19.34,7.206H15.978c-.03-.406-.065-.8-.106-1.187L16.056,6A22.738,22.738,0,0,0,18.82,5.59a12.174,12.174,0,0,1,.52,1.617ZM13.7,1.143h.007c.033.011.291.125.615,1.06a.4.4,0,0,0,.759-.263,5.653,5.653,0,0,0-.258-.631,6.433,6.433,0,0,1,3.658,3.53,22.149,22.149,0,0,1-2.5.365l-.206.016c-.076-.583-.164-1.13-.263-1.626a.4.4,0,0,0-.788.157c.093.464.175.974.248,1.52-.842.04-1.7.04-2.537,0a16.511,16.511,0,0,1,.643-3.046C13.408,1.27,13.669,1.154,13.7,1.143Zm1.47,6.063H12.24c.029-.388.064-.768.1-1.136.452.022.908.034,1.364.034s.911-.012,1.364-.034c.039.368.073.748.1,1.136Zm-2.586-5.9a5.708,5.708,0,0,0-.266.654,17.451,17.451,0,0,0-.686,3.256c-.068-.005-.137-.009-.2-.015a22.169,22.169,0,0,1-2.5-.365,6.436,6.436,0,0,1,3.659-3.53Zm-1.046,4.71c-.04.385-.076.782-.106,1.187H8.073a12.173,12.173,0,0,1,.52-1.617A22.749,22.749,0,0,0,11.359,6ZM8.027,3.025a9.48,9.48,0,0,1,2.124-1.2A9,9,0,0,0,8.127,4.654a13.127,13.127,0,0,1-1.413-.446A9.625,9.625,0,0,1,8.027,3.025ZM6.168,4.855A13.1,13.1,0,0,0,7.805,5.4a13.116,13.116,0,0,0-.559,1.807h-2.4A9.432,9.432,0,0,1,6.168,4.855ZM.8,13.015V8.009H5.681v5.006Zm5.37,3.419a9.552,9.552,0,0,1-1.427-2.616H7.187a13.23,13.23,0,0,0,.618,2.073,13.129,13.129,0,0,0-1.632.543Zm1.78,1.775a9.488,9.488,0,0,1-1.236-1.128,13.141,13.141,0,0,1,1.41-.444,9.008,9.008,0,0,0,2.022,2.825,9.489,9.489,0,0,1-2.2-1.253Zm.975-1.758a22.148,22.148,0,0,1,2.5-.365l.206-.016a17.486,17.486,0,0,0,.686,3.256,5.7,5.7,0,0,0,.267.655,6.42,6.42,0,0,1-3.658-3.531Zm3.292-2.634h2.971c-.033.481-.074.95-.122,1.4-.9-.045-1.822-.045-2.727,0-.047-.452-.088-.921-.121-1.4Zm1.485,6.331s-.276-.064-.626-1.082a16.513,16.513,0,0,1-.643-3.046c.842-.04,1.7-.04,2.537,0a16.519,16.519,0,0,1-.643,3.046c-.349,1.019-.623,1.082-.625,1.082Zm1.119-.166a5.707,5.707,0,0,0,.267-.655,17.45,17.45,0,0,0,.686-3.256c.068.005.137.009.2.015a22.169,22.169,0,0,1,2.5.365,6.418,6.418,0,0,1-3.658,3.532ZM18.819,15.7a22.742,22.742,0,0,0-2.766-.415l-.182-.015c.049-.469.091-.956.125-1.454H19.4A12.3,12.3,0,0,1,18.82,15.7Zm2.423.734a13.112,13.112,0,0,0-1.635-.544,13.23,13.23,0,0,0,.618-2.073h2.44a9.452,9.452,0,0,1-1.423,2.617ZM26.61,8.009h0v5.006H10.28a.4.4,0,1,0,0,.8h1.136c.034.5.075.985.125,1.454l-.183.015a22.734,22.734,0,0,0-2.764.414,12.3,12.3,0,0,1-.583-1.883h.557a.4.4,0,0,0,0-.8H6.484V8.009Z" transform="translate(0 -0.339)" fill="#e9533a"/>
          </g>
        </g>
        <g id="Group_184" data-name="Group 184" transform="translate(1.175 7.914)">
          <g id="Group_183" data-name="Group 183">
            <path id="Path_183" data-name="Path 183" d="M4.223,2.611a.543.543,0,0,0-.441-.372l-.765-.111-.342-.693a.547.547,0,0,0-.981,0l-.342.693-.765.111a.547.547,0,0,0-.3.933l.554.539-.131.762a.547.547,0,0,0,.793.577l.684-.36.684.36a.547.547,0,0,0,.793-.577l-.13-.762.554-.54a.544.544,0,0,0,.138-.56ZM2.874,3.23a.547.547,0,0,0-.157.484l.066.383-.344-.181a.547.547,0,0,0-.509,0L1.585,4.1l.066-.383a.547.547,0,0,0-.157-.484l-.278-.271L1.6,2.9a.547.547,0,0,0,.412-.3l.172-.349.172.349a.547.547,0,0,0,.412.3l.385.056Z" transform="translate(-0.117 -1.129)" fill="#e9533a"/>
          </g>
        </g>
        <g id="Group_186" data-name="Group 186" transform="translate(9.555 8.895)">
          <g id="Group_185" data-name="Group 185">
            <path id="Path_184" data-name="Path 184" d="M5.142,1.27a.4.4,0,0,0-.54.177L4.058,2.52,3.531,1.48a.4.4,0,0,0-.753.012L2.257,2.52,1.713,1.447A.4.4,0,1,0,1,1.81l.9,1.78a.4.4,0,0,0,.716,0l.542-1.07L3.7,3.59a.4.4,0,0,0,.716,0l.9-1.78a.4.4,0,0,0-.178-.54Z" transform="translate(-0.953 -1.227)" fill="#e9533a"/>
          </g>
        </g>
        <g id="Group_188" data-name="Group 188" transform="translate(14.201 8.895)">
          <g id="Group_187" data-name="Group 187">
            <path id="Path_185" data-name="Path 185" d="M5.606,1.27a.4.4,0,0,0-.54.177L4.522,2.52,3.995,1.48a.4.4,0,0,0-.753.012L2.721,2.52,2.177,1.447a.4.4,0,1,0-.716.363l.9,1.78a.4.4,0,0,0,.716,0l.542-1.07.542,1.07a.4.4,0,0,0,.716,0l.9-1.78a.4.4,0,0,0-.177-.54Z" transform="translate(-1.417 -1.227)" fill="#e9533a"/>
          </g>
        </g>
        <g id="Group_190" data-name="Group 190" transform="translate(18.847 8.895)">
          <g id="Group_189" data-name="Group 189">
            <path id="Path_186" data-name="Path 186" d="M6.069,1.27a.4.4,0,0,0-.54.177L4.986,2.52,4.458,1.48a.4.4,0,0,0-.753.012L3.184,2.52,2.64,1.447a.4.4,0,1,0-.717.363l.9,1.78a.4.4,0,0,0,.716,0l.542-1.07.542,1.07a.4.4,0,0,0,.716,0l.9-1.78a.4.4,0,0,0-.177-.54Z" transform="translate(-1.88 -1.227)" fill="#e9533a"/>
          </g>
        </g>
      </g>
    </g>
  </g>
</svg>
