<svg xmlns="http://www.w3.org/2000/svg" xmlns:xlink="http://www.w3.org/1999/xlink" width="32" height="32" viewBox="0 0 32 32">
  <defs>
    <clipPath id="clip-path">
      <rect id="Rectangle_1016" data-name="Rectangle 1016" width="32" height="32" fill="#e9533a"/>
    </clipPath>
    <clipPath id="clip-path-2">
      <rect id="Rectangle_266" data-name="Rectangle 266" width="27.371" height="32" transform="translate(43.975 89.016)" fill="#e9533a"/>
    </clipPath>
  </defs>
  <g id="domain-icon" clip-path="url(#clip-path)">
    <g id="Mask_Group_4" data-name="Mask Group 4" transform="translate(-41.66 -89.016)" clip-path="url(#clip-path-2)">
      <g id="http" transform="translate(43.975 93.185)">
        <path id="Path_161" data-name="Path 161" d="M2.436,1.206a.576.576,0,0,0-.4.158.513.513,0,0,0-.174.4.513.513,0,0,0,.175.4.584.584,0,0,0,.4.158.549.549,0,0,0,.558-.558.559.559,0,0,0-.558-.559Zm0,0" transform="translate(15.002 9.713)" fill="#e9533a"/>
        <path id="Path_162" data-name="Path 162" d="M2.43,1.436a.559.559,0,0,0-.4.164.535.535,0,0,0-.171.4.575.575,0,0,0,.164.4.566.566,0,0,0,.8-.8.535.535,0,0,0-.394-.167Zm0,0" transform="translate(15.007 11.567)" fill="#e9533a"/>
        <path id="Path_163" data-name="Path 163" d="M2.976,2.119H2.668l.006-.592a.458.458,0,0,0-.152-.355.478.478,0,0,0-.347-.15.5.5,0,0,0-.507.505v.592H1.5a.458.458,0,0,0-.327.129.414.414,0,0,0-.138.319.438.438,0,0,0,.131.314.443.443,0,0,0,.335.138h.171v2.19a.525.525,0,0,0,.036.2.46.46,0,0,0,.108.161.472.472,0,0,0,.355.15.47.47,0,0,0,.358-.15.513.513,0,0,0,.141-.361L2.668,3.027h.3a.442.442,0,0,0,.325-.135.451.451,0,0,0-.318-.772Zm0,0" transform="translate(8.392 8.228)" fill="#e9533a"/>
        <path id="Path_164" data-name="Path 164" d="M2.679,2.119H2.37l.008-.592a.463.463,0,0,0-.152-.355.5.5,0,0,0-.854.355v.592H1.208a.464.464,0,0,0-.329.129.419.419,0,0,0-.138.319.439.439,0,0,0,.132.314.44.44,0,0,0,.335.138h.17v2.19a.525.525,0,0,0,.036.2.488.488,0,0,0,.109.161.47.47,0,0,0,.355.15.471.471,0,0,0,.358-.15.514.514,0,0,0,.141-.361L2.37,3.027h.3A.444.444,0,0,0,3,2.892a.451.451,0,0,0-.318-.772Zm0,0" transform="translate(5.983 8.228)" fill="#e9533a"/>
        <path id="Path_165" data-name="Path 165" d="M2.278,2.493a1.5,1.5,0,0,0-.775.2l-.146.1V1.473a.457.457,0,0,0-.15-.354A.471.471,0,0,0,.853.968a.487.487,0,0,0-.361.152.48.48,0,0,0-.152.354V5.66a.481.481,0,0,0,.152.355.493.493,0,0,0,.361.152.489.489,0,0,0,.358-.149.485.485,0,0,0,.147-.358V3.932a.554.554,0,0,1,.177-.414.594.594,0,0,1,.427-.17.546.546,0,0,1,.407.175.574.574,0,0,1,.171.417V5.66a.516.516,0,0,0,.513.513.458.458,0,0,0,.355-.152.492.492,0,0,0,.15-.361V3.774a1.229,1.229,0,0,0-.308-.886,1.3,1.3,0,0,0-.972-.395Zm0,0" transform="translate(2.746 7.789)" fill="#e9533a"/>
        <path id="Path_166" data-name="Path 166" d="M4.7,2.01a1.8,1.8,0,0,0-.269-.34,1.625,1.625,0,0,0-1.193-.5,1.745,1.745,0,0,0-.93.256.491.491,0,0,0-.939.253V5.749a.469.469,0,0,0,.15.362.5.5,0,0,0,.362.15.471.471,0,0,0,.353-.15.488.488,0,0,0,.152-.355V4.346a1.77,1.77,0,0,0,.851.211A1.666,1.666,0,0,0,4.925,2.865a1.665,1.665,0,0,0-.1-.575A1.227,1.227,0,0,0,4.7,2.01ZM3.218,3.587a.743.743,0,1,1,.742-.742A.743.743,0,0,1,3.218,3.587Zm0,0" transform="translate(11.028 9.132)" fill="#e9533a"/>
        <path id="Path_167" data-name="Path 167" d="M25.064,6.322h-.879A11.858,11.858,0,0,0,11.027.308.535.535,0,0,0,11.27,1.35,10.832,10.832,0,0,1,20.151,3.2H17.7a2.145,2.145,0,0,0-1.914,3.123H4.46A10.836,10.836,0,0,1,7.7,2.9a.535.535,0,1,0-.6-.887A11.9,11.9,0,0,0,3.232,6.322h-.9A2.332,2.332,0,0,0,0,8.652v6.279a2.333,2.333,0,0,0,2.329,2.332h.84a11.868,11.868,0,0,0,2.243,3.048l0,0a11.842,11.842,0,0,0,18.835-3.049h.815a2.334,2.334,0,0,0,2.331-2.332V8.652a2.333,2.333,0,0,0-2.331-2.33ZM16.621,5.35A1.082,1.082,0,0,1,17.7,4.268h3.674a10.829,10.829,0,0,1,1.583,2.054H17.23a1.092,1.092,0,0,1-.608-.972ZM9.911,17.263A1.081,1.081,0,0,1,9.673,19.4H6.021a10.734,10.734,0,0,1-1.633-2.135Zm16.414-2.332a1.263,1.263,0,0,1-1.261,1.262H19.081a.535.535,0,0,0,0,1.07h3.949a10.753,10.753,0,0,1-15.784,3.2H9.673a2.151,2.151,0,0,0,1.874-3.205h3.26a.535.535,0,0,0,0-1.07H2.329A1.262,1.262,0,0,1,1.07,14.932V8.652A1.261,1.261,0,0,1,2.329,7.391H25.064a1.262,1.262,0,0,1,1.261,1.26Zm0,0" transform="translate(0 -0.003)" fill="#e9533a"/>
        <path id="Path_168" data-name="Path 168" d="M4.128,1.314l-1.771,4.4a.427.427,0,0,0-.035.162.54.54,0,0,0,1.036.252L5.137,1.718a.407.407,0,0,0,.035-.168.54.54,0,0,0-1.043-.235Zm0,0" transform="translate(18.746 7.772)" fill="#e9533a"/>
        <path id="Path_169" data-name="Path 169" d="M4.917,1.536A.54.54,0,0,0,3.874,1.3L2.1,5.7a.4.4,0,0,0-.035.162.54.54,0,0,0,1.036.25L4.882,1.7a.406.406,0,0,0,.035-.167Zm0,0" transform="translate(16.694 7.655)" fill="#e9533a"/>
        <path id="Path_170" data-name="Path 170" d="M1.479,1.185a.534.534,0,0,0,.239-.056l.009,0A.535.535,0,0,0,1.249.167l-.009,0a.535.535,0,0,0,.24,1.013Zm0,0" transform="translate(7.623 0.865)" fill="#e9533a"/>
        <path id="Path_171" data-name="Path 171" d="M2.354,1.787H2.343a.535.535,0,1,0,0,1.07h.011a.535.535,0,1,0,0-1.07Zm0,0" transform="translate(14.6 14.403)" fill="#e9533a"/>
      </g>
    </g>
  </g>
</svg>
