<svg id="double-quotes-icon" xmlns="http://www.w3.org/2000/svg" xmlns:xlink="http://www.w3.org/1999/xlink" width="32" height="32" viewBox="0 0 32 32">
  <defs>
    <linearGradient id="linear-gradient" x1="0.5" x2="0.5" y2="1" gradientUnits="objectBoundingBox">
      <stop offset="0" stop-color="#009cff"/>
      <stop offset="1" stop-color="#3fa2ff"/>
    </linearGradient>
  </defs>
  <path id="Path_2068" data-name="Path 2068" d="M0,0H32V32H0Z" fill="none"/>
  <path id="Path_2069" data-name="Path 2069" d="M24.833,7.072a7.623,7.623,0,0,1,2.111,5.747c0,4.667-3.276,8.849-8.04,10.917L17.713,21.9c4.447-2.405,5.316-5.527,5.663-7.495a4.774,4.774,0,0,1-2.572.415A4.666,4.666,0,0,1,21.169,5.5a5.161,5.161,0,0,1,3.664,1.572Zm-13.333,0a7.623,7.623,0,0,1,2.111,5.747c0,4.667-3.276,8.849-8.04,10.917L4.379,21.9C8.826,19.493,9.7,16.372,10.042,14.4a4.774,4.774,0,0,1-2.572.415A4.667,4.667,0,0,1,7.837,5.5,5.161,5.161,0,0,1,11.5,7.072Z" transform="translate(1.057 1.833)" fill="url(#linear-gradient)"/>
</svg>
