<svg xmlns="http://www.w3.org/2000/svg" xmlns:xlink="http://www.w3.org/1999/xlink" width="32" height="32" viewBox="0 0 32 32">
  <defs>
    <clipPath id="clip-path">
      <rect id="Rectangle_1016" data-name="Rectangle 1016" width="32" height="32" transform="translate(385 3192)" fill="#186ff2"/>
    </clipPath>
  </defs>
  <g id="Mask_Group_10" data-name="Mask Group 10" transform="translate(-385 -3192)" clip-path="url(#clip-path)">
    <g id="email" transform="translate(385 3192)">
      <g id="Group_2299" data-name="Group 2299">
        <g id="Group_2298" data-name="Group 2298">
          <path id="Path_1987" data-name="Path 1987" d="M32,5.562c0-.02,0-.04,0-.06s0-.014,0-.022,0-.027-.006-.04,0-.017-.005-.026-.006-.023-.009-.035,0-.018-.008-.027v0c-.005-.016-.011-.031-.017-.047l-.012-.028-.017-.035-.012-.022-.02-.033-.013-.019-.025-.033-.012-.015q-.018-.022-.038-.042l0,0c-.014-.014-.03-.028-.045-.041l-.015-.012L31.7,4.995l-.02-.014-.031-.019-.022-.012-.037-.018-.021-.01L31.518,4.9,31.494,4.9l-.038-.01-.025-.005-.041-.006-.022,0c-.021,0-.043,0-.064,0H.7c-.022,0-.043,0-.064,0l-.022,0-.041.006-.025.005L.506,4.9.482,4.9.43,4.922l-.021.01L.372,4.95.35,4.962l-.032.019L.3,4.995l-.033.025-.015.012c-.016.013-.031.027-.045.041l0,0q-.02.02-.038.042l-.012.015-.025.033-.013.019-.02.033L.08,5.241c-.006.011-.011.023-.017.035L.051,5.3c-.006.015-.012.031-.017.047v0c0,.009-.005.018-.008.027S.02,5.4.017,5.414s0,.017-.005.026,0,.027-.006.041S0,5.495,0,5.5s0,.04,0,.06c0,0,0,0,0,0H0V26.435a.7.7,0,0,0,.7.7H31.3a.7.7,0,0,0,.7-.7V5.567h0S32,5.563,32,5.562Zm-2.835.7L16,15.835,2.835,6.261Zm1.444,19.478H1.391V24.348H4.87a.7.7,0,0,0,0-1.391H1.391V6.931l14.2,10.327a.7.7,0,0,0,.818,0l14.2-10.327Z" fill="#186ff2"/>
        </g>
      </g>
      <g id="Group_2301" data-name="Group 2301">
        <g id="Group_2300" data-name="Group 2300">
          <path id="Path_1988" data-name="Path 1988" d="M7.18,22.956H7.171a.7.7,0,0,0,0,1.391H7.18a.7.7,0,0,0,0-1.391Z" fill="#186ff2"/>
        </g>
      </g>
    </g>
  </g>
</svg>
