<svg xmlns="http://www.w3.org/2000/svg" xmlns:xlink="http://www.w3.org/1999/xlink" width="56" height="57" viewBox="0 0 56 57">
  <defs>
    <clipPath id="clip-path">
      <rect id="Rectangle_1124" data-name="Rectangle 1124" width="50" height="50" transform="translate(1074 3612)" fill="#105285"/>
    </clipPath>
  </defs>
  <g id="file-icon" transform="translate(-1068 -3612)">
    <circle id="Ellipse_64" data-name="Ellipse 64" cx="9" cy="9" r="9" transform="translate(1068 3651)" fill="#911cbc"/>
    <g id="Mask_Group_41" data-name="Mask Group 41" clip-path="url(#clip-path)">
      <g id="folder" transform="translate(1074 3612)">
        <path id="Path_2392" data-name="Path 2392" d="M47.908,22.5H45V17.277A2.28,2.28,0,0,0,42.723,15H40V12.988l-.412-.413s0,0,0,0l-6.08-6.08L27.012,0H6.667V9.167H2.277A2.28,2.28,0,0,0,0,11.443V47.849H0A2.128,2.128,0,0,0,2.138,50h37.3a2.116,2.116,0,0,0,2.042-1.511L50,25.124v-.148A2.232,2.232,0,0,0,47.908,22.5Zm-5.185-5.833a.611.611,0,0,1,.61.61V22.5H40V16.667ZM27.5,2.846,37.155,12.5H27.5ZM8.333,1.667h17.5v12.5h12.5V22.5H10.609a2.138,2.138,0,0,0-.352.029,2.1,2.1,0,0,0-1.69,1.482l-.234.643V1.667ZM1.667,11.443a.611.611,0,0,1,.61-.61h4.39V29.2l-5,13.637ZM39.891,47.986a.471.471,0,0,1-.454.347H2.138a.46.46,0,0,1-.373-.185.451.451,0,0,1-.1-.34l5-13.727v0l3.467-9.5.022-.068a.472.472,0,0,1,.454-.347h37.3c.317,0,.4.455.418.683Z" fill="#105285"/>
        <path id="Path_2393" data-name="Path 2393" d="M13.333,14.167h8.333a.833.833,0,1,0,0-1.667H13.333a.833.833,0,0,0,0,1.667Z" fill="#105285"/>
        <path id="Path_2394" data-name="Path 2394" d="M13.333,8.333h8.333a.833.833,0,1,0,0-1.667H13.333a.833.833,0,0,0,0,1.667Z" fill="#105285"/>
        <path id="Path_2395" data-name="Path 2395" d="M13.333,20h20a.833.833,0,0,0,0-1.667h-20a.833.833,0,0,0,0,1.667Z" fill="#105285"/>
      </g>
    </g>
  </g>
</svg>
