<svg xmlns="http://www.w3.org/2000/svg" xmlns:xlink="http://www.w3.org/1999/xlink" width="32" height="32" viewBox="0 0 32 32">
  <defs>
    <clipPath id="clip-path">
      <rect id="Rectangle_1016" data-name="Rectangle 1016" width="32" height="32" fill="#e9533a"/>
    </clipPath>
    <clipPath id="clip-path-2">
      <rect id="Rectangle_266" data-name="Rectangle 266" width="27.378" height="32" transform="translate(51.793 104.889)" fill="#e9533a" stroke="#707070" stroke-width="0.119"/>
    </clipPath>
  </defs>
  <g id="ftp-icon" clip-path="url(#clip-path)">
    <g id="Mask_Group_5" data-name="Mask Group 5" transform="translate(-49.481 -104.889)" clip-path="url(#clip-path-2)">
      <g id="ftp" transform="translate(53.358 104.889)">
        <path id="Path_172" data-name="Path 172" d="M21.878,16.078h-.413V10.126a2.107,2.107,0,0,0-2.1-2.1H18.27a1.447,1.447,0,0,0-1.159-2.313h-.645v-3.9a1.808,1.808,0,1,0-3.617,0v3.9h-.644a1.447,1.447,0,0,0-1.159,2.313H9V5.692h.644a1.446,1.446,0,0,0,1.091-2.4L8.315.51a1.484,1.484,0,0,0-2.239,0L3.652,3.3a1.447,1.447,0,0,0,1.091,2.4h.644v2.33H4.207a2.107,2.107,0,0,0-2.1,2.1v2.127a2.427,2.427,0,0,0-2.1,2.4V29.576A2.426,2.426,0,0,0,2.428,32h19.45A2.426,2.426,0,0,0,24.3,29.576V18.5a2.427,2.427,0,0,0-2.424-2.424Zm-9.851-9a.185.185,0,0,1,.179-.115h.835A1.06,1.06,0,0,0,14.1,5.9V1.808a.558.558,0,1,1,1.117,0V5.9a1.06,1.06,0,0,0,1.059,1.059h.835a.2.2,0,0,1,.148.326l-.828.951-1.6,1.834a.234.234,0,0,1-.353,0L12.057,7.285a.186.186,0,0,1-.03-.211ZM4.743,4.442a.2.2,0,0,1-.148-.325L7.019,1.33a.234.234,0,0,1,.353,0L9.8,4.116a.2.2,0,0,1-.148.325H8.813A1.06,1.06,0,0,0,7.754,5.5V9.593a.558.558,0,0,1-1.117,0V5.5A1.06,1.06,0,0,0,5.578,4.442ZM23.052,29.576a1.175,1.175,0,0,1-1.173,1.173H2.428a1.175,1.175,0,0,1-1.173-1.173V14.655a1.175,1.175,0,0,1,1.173-1.173H8.139a1.175,1.175,0,0,1,1.173,1.173v1.094a1.582,1.582,0,0,0,1.581,1.579h3.28a.625.625,0,1,0,0-1.25h-3.28a.331.331,0,0,1-.33-.33V14.654a2.427,2.427,0,0,0-2.424-2.423H3.354V10.126a.855.855,0,0,1,.853-.854H5.387v.321A1.809,1.809,0,1,0,9,9.593V9.272h3.125l1.409,1.619a1.484,1.484,0,0,0,2.239,0l1.409-1.619H19.36a.855.855,0,0,1,.855.854v5.952H19.174a.625.625,0,1,0,0,1.25h2.7A1.175,1.175,0,0,1,23.051,18.5Zm0,0" transform="translate(-0.004)" fill="#e9533a"/>
        <path id="Path_173" data-name="Path 173" d="M4.242,2.615H1.182a.782.782,0,0,0-.424.111.349.349,0,0,0-.176.313v5.6a.342.342,0,0,0,.2.313,1,1,0,0,0,.485.11,1,1,0,0,0,.485-.11.342.342,0,0,0,.2-.313V6.363H3.29A.347.347,0,0,0,3.6,6.2.636.636,0,0,0,3.7,5.842a.649.649,0,0,0-.11-.379.351.351,0,0,0-.3-.159H1.958V3.815H4.242a.342.342,0,0,0,.3-.176.8.8,0,0,0,.11-.432.79.79,0,0,0-.106-.415.34.34,0,0,0-.308-.176Zm0,0" transform="translate(3.881 17.559)" fill="#e9533a"/>
        <path id="Path_174" data-name="Path 174" d="M5.428,2.615H1.619a.339.339,0,0,0-.308.176.79.79,0,0,0-.106.415.8.8,0,0,0,.11.433.342.342,0,0,0,.3.176H2.836V8.635a.345.345,0,0,0,.2.315,1,1,0,0,0,.485.111,1,1,0,0,0,.485-.111.345.345,0,0,0,.2-.315V3.815H5.428a.343.343,0,0,0,.3-.176.8.8,0,0,0,.11-.433.79.79,0,0,0-.106-.415.339.339,0,0,0-.308-.176Zm0,0" transform="translate(8.056 17.559)" fill="#e9533a"/>
        <path id="Path_175" data-name="Path 175" d="M5.812,3.105A2.24,2.24,0,0,0,4.3,2.616H2.474a.542.542,0,0,0-.37.123.375.375,0,0,0-.141.291V8.638a.342.342,0,0,0,.2.313,1,1,0,0,0,.485.11,1,1,0,0,0,.485-.11.342.342,0,0,0,.2-.313v-1.9h.873a2.374,2.374,0,0,0,1.574-.5,1.9,1.9,0,0,0,.6-1.548V4.644a1.924,1.924,0,0,0-.569-1.539ZM5,4.793q0,.882-.793.882H3.338V3.815h.873q.794,0,.793.882Zm0,0" transform="translate(13.145 17.559)" fill="#e9533a"/>
        <path id="Path_176" data-name="Path 176" d="M2.71,3.334a.625.625,0,0,0,0-1.25h0a.625.625,0,0,0,0,1.25Zm0,0" transform="translate(13.961 13.994)" fill="#e9533a"/>
      </g>
    </g>
  </g>
</svg>
