<svg xmlns="http://www.w3.org/2000/svg" xmlns:xlink="http://www.w3.org/1999/xlink" width="32" height="32" viewBox="0 0 32 32">
  <defs>
    <clipPath id="clip-path">
      <rect id="Rectangle_1016" data-name="Rectangle 1016" width="32" height="32" fill="#911cbc"/>
    </clipPath>
  </defs>
  <g id="hdd-icon" clip-path="url(#clip-path)">
    <path id="server_2_" data-name="server (2)" d="M31.538,4.551a3.251,3.251,0,0,0-3.2-2.773H7.858A3.208,3.208,0,0,0,4.693,4.444L1.778,21.867v8.711a3.187,3.187,0,0,0,3.2,3.2h25.6a3.187,3.187,0,0,0,3.2-3.2v-8.6ZM6.791,4.8a1.043,1.043,0,0,1,1.067-.889h20.48a1.073,1.073,0,0,1,1.067.924l2.1,16.142H4.124ZM30.578,31.644H4.978a1.048,1.048,0,0,1-1.067-1.067V23.111H31.644v7.467A1.048,1.048,0,0,1,30.578,31.644Zm-3.2-6.756a2.489,2.489,0,1,0,2.489,2.489A2.474,2.474,0,0,0,27.378,24.889Zm0,3.556a1.067,1.067,0,1,1,1.067-1.067A1.048,1.048,0,0,1,27.378,28.444Z" transform="translate(-1.778 -1.778)" fill="#911cbc"/>
  </g>
</svg>
