<svg xmlns="http://www.w3.org/2000/svg" xmlns:xlink="http://www.w3.org/1999/xlink" width="50" height="51" viewBox="0 0 50 51">
  <defs>
    <clipPath id="clip-path">
      <rect id="Rectangle_1602" data-name="Rectangle 1602" width="44" height="44" transform="translate(563 6247)" fill="#105285"/>
    </clipPath>
  </defs>
  <g id="headset-icon" transform="translate(-557 -6247)">
    <circle id="Ellipse_64" data-name="Ellipse 64" cx="9" cy="9" r="9" transform="translate(557 6280)" fill="#3aa1ff"/>
    <g id="Mask_Group_314" data-name="Mask Group 314" clip-path="url(#clip-path)">
      <path id="telemarketer" d="M46.444,24.444a22,22,0,1,0-44,0c0,.054.01.112.015.161-.01.108-.015.22-.015.328V39.6a6.852,6.852,0,0,0,6.844,6.844H27.867a.978.978,0,1,0,0-1.956H9.289A4.9,4.9,0,0,1,4.4,39.6V33.885a3.365,3.365,0,0,0,1.467.337,3.427,3.427,0,0,0,3.212-2.254,17.107,17.107,0,0,0,30.732,0A3.42,3.42,0,0,0,46.444,30.8V24.933c0-.108,0-.22-.015-.328C46.435,24.557,46.444,24.5,46.444,24.444ZM24.444,4.4A20.067,20.067,0,0,1,44.3,21.76a3.475,3.475,0,0,0-1.281-.249,3.432,3.432,0,0,0-1.652.425,17.11,17.11,0,0,0-33.851,0,3.418,3.418,0,0,0-1.652-.425,3.475,3.475,0,0,0-1.281.249A20.067,20.067,0,0,1,24.444,4.4ZM7.333,30.8a1.467,1.467,0,1,1-2.933,0V24.933a1.467,1.467,0,0,1,2.933,0Zm17.111,8.8A15.156,15.156,0,1,1,39.6,24.444,15.175,15.175,0,0,1,24.444,39.6Zm20.044-8.8a1.467,1.467,0,1,1-2.933,0V24.933a1.467,1.467,0,1,1,2.933,0ZM31.7,30.321a.98.98,0,0,1,0,1.384,10.268,10.268,0,0,1-14.52,0,.978.978,0,0,1,1.384-1.384,8.309,8.309,0,0,0,11.753,0A.98.98,0,0,1,31.7,30.321Z" transform="translate(560.556 6244.556)" fill="#105285"/>
    </g>
  </g>
</svg>
