<svg xmlns="http://www.w3.org/2000/svg" xmlns:xlink="http://www.w3.org/1999/xlink" width="36" height="35.999" viewBox="0 0 36 35.999">
  <defs>
    <linearGradient id="linear-gradient" x1="0.5" x2="0.5" y2="1" gradientUnits="objectBoundingBox">
      <stop offset="0" stop-color="#009cff"/>
      <stop offset="1" stop-color="#3fa2ff"/>
    </linearGradient>
  </defs>
  <path id="headset2-icon" d="M31.989,12.454h1.738A3.273,3.273,0,0,1,37,15.727v6.546a3.273,3.273,0,0,1-3.273,3.273H31.989A13.093,13.093,0,0,1,19,37V33.727a9.818,9.818,0,0,0,9.818-9.818V14.09a9.818,9.818,0,1,0-19.636,0V25.545H4.273A3.273,3.273,0,0,1,1,22.272V15.727a3.273,3.273,0,0,1,3.273-3.273H6.011a13.093,13.093,0,0,1,25.979,0ZM4.273,15.727v6.546H5.909V15.727Zm27.818,0v6.546h1.636V15.727ZM12.062,25.193,13.8,22.418a9.827,9.827,0,0,0,10.407,0l1.735,2.775a13.1,13.1,0,0,1-13.876,0Z" transform="translate(-1 -1.001)" fill="url(#linear-gradient)"/>
</svg>
