<svg xmlns="http://www.w3.org/2000/svg" xmlns:xlink="http://www.w3.org/1999/xlink" width="50" height="50" viewBox="0 0 50 50">
  <defs>
    <clipPath id="clip-path">
      <rect id="Rectangle_1056" data-name="Rectangle 1056" width="50" height="50" transform="translate(923 5919)" fill="#105285"/>
    </clipPath>
  </defs>
  <g id="joomla" transform="translate(-923 -5919)" clip-path="url(#clip-path)">
    <path id="joomla-2" data-name="joomla" d="M34.831,30.748l-5.206,5.21L24.688,40.9l-.962.971a11.094,11.094,0,0,1-10.515,2.91,6.69,6.69,0,1,1-8.067-8.008A11.073,11.073,0,0,1,8.052,26.185l.373-.375,4.937,4.938-.383.377a4.113,4.113,0,0,0,0,5.81,4.067,4.067,0,0,0,5.806,0l.969-.969,4.931-4.94L29.9,25.806l4.933,4.942Zm1.925,13.858a11.08,11.08,0,0,1-11.1-2.746l-.375-.385,4.927-4.935.375.383a4.1,4.1,0,1,0,5.8-5.794l-.971-.969-4.927-4.937-5.212-5.215,4.938-4.935,5.206,5.219,4.931,4.937.967.967a11,11,0,0,1,2.94,10.46,6.688,6.688,0,1,1-7.469,7.969l-.027-.019ZM14.531,19.71l5.225-5.219,4.938-4.935.962-.96A11.029,11.029,0,0,1,36.625,5.812a6.687,6.687,0,1,1,7.5,7.542,11.063,11.063,0,0,1-2.812,10.9l-.379.383L36,19.706l.383-.383a4.1,4.1,0,1,0-5.794-5.792l-.962.96-4.937,4.935L19.469,24.64,14.531,19.71ZM9,25.225l-.96-.962A11.07,11.07,0,0,1,5.269,13.246a6.691,6.691,0,1,1,8.085-7.608A11.084,11.084,0,0,1,23.727,8.585l.383.385-4.937,4.937-.381-.377a4.11,4.11,0,0,0-5.812,5.812l.969.971,4.937,4.935L24.1,30.469l-4.931,4.937-5.229-5.219L9,25.25v-.025Z" transform="translate(923 5919)" fill="#105285"/>
  </g>
</svg>
