<svg xmlns="http://www.w3.org/2000/svg" xmlns:xlink="http://www.w3.org/1999/xlink" width="32" height="32" viewBox="0 0 32 32">
  <defs>
    <clipPath id="clip-path">
      <rect id="Rectangle_1016" data-name="Rectangle 1016" width="32" height="32" transform="translate(385 3192)" fill="#186ff2"/>
    </clipPath>
  </defs>
  <g id="Mask_Group_11" data-name="Mask Group 11" transform="translate(-385 -3192)" clip-path="url(#clip-path)">
    <g id="cloud-computing" transform="translate(385.895 3192)">
      <path id="Path_1989" data-name="Path 1989" d="M28.542,10.121A5.5,5.5,0,0,0,24.621,8.5c-.149,0-.3,0-.461.01A8.991,8.991,0,0,0,15.192,0,8.892,8.892,0,0,0,9.73,1.853,9.065,9.065,0,0,0,6.65,6.206,7.888,7.888,0,0,0,.027,14v.038c0,.008,0,.016,0,.024a6.372,6.372,0,0,0,4.881,6.206v8.155a.55.55,0,0,0,.529.542H11.86l-.565,2H10.254a.516.516,0,1,0,0,1.033h9.7a.516.516,0,0,0,0-1.033H18.913l-.565-2h6.424a.55.55,0,0,0,.529-.542V20.269a6.378,6.378,0,0,0,4.883-6.206.5.5,0,0,0-.018-.13,5.537,5.537,0,0,0-1.624-3.812Zm-10.7,20.846H12.367l.565-2h4.343Zm6.428-3.033H5.939v-2H24.269ZM5.939,24.9V13.283H24.269V24.9ZM25.3,19.2V12.781a.54.54,0,0,0-.529-.53H5.436a.539.539,0,0,0-.529.53V19.2A5.463,5.463,0,0,1,2.34,17.544a5.347,5.347,0,0,1-1.284-3.452c0-.011,0-.026,0-.038s0-.061,0-.061h0A6.849,6.849,0,0,1,7.107,7.181a.514.514,0,0,0,.437-.37,7.949,7.949,0,0,1,15.6,2.167c0,.032,0,.063,0,.095a.517.517,0,0,0,.617.519,4.538,4.538,0,0,1,5.377,4.471.522.522,0,0,0,.02.118A5.371,5.371,0,0,1,25.3,19.2Zm0,0" fill="#186ff2"/>
      <path id="Path_1990" data-name="Path 1990" d="M17.879,17.78v-.772a2.775,2.775,0,1,0-5.55,0v.772A1.7,1.7,0,0,0,11.1,19.4v3.4a1.717,1.717,0,0,0,1.7,1.709H17.4a1.718,1.718,0,0,0,1.7-1.709V19.4a1.7,1.7,0,0,0-1.226-1.624ZM15.1,15.236a1.758,1.758,0,0,1,1.743,1.772v.729H13.362v-.729A1.758,1.758,0,0,1,15.1,15.236Zm2.969,7.583a.662.662,0,0,1-.662.662H12.8a.662.662,0,0,1-.662-.662V19.431a.661.661,0,0,1,.661-.662h4.615a.661.661,0,0,1,.662.661Zm0,0" fill="#186ff2"/>
      <path id="Path_1991" data-name="Path 1991" d="M15.092,20.074a1.064,1.064,0,0,0-.568,1.965v.473a.516.516,0,0,0,1.033,0V22.1a1.065,1.065,0,0,0-.464-2.023Zm0,1.033a.032.032,0,0,1,.031.02.033.033,0,0,1-.007.036l-.05,0a.031.031,0,0,1-.006-.019A.033.033,0,0,1,15.092,21.107Zm0,0" fill="#186ff2"/>
    </g>
  </g>
</svg>
