<svg xmlns="http://www.w3.org/2000/svg" xmlns:xlink="http://www.w3.org/1999/xlink" width="32" height="32" viewBox="0 0 32 32">
  <defs>
    <clipPath id="clip-path">
      <rect id="Rectangle_1016" data-name="Rectangle 1016" width="32" height="32" fill="#911cbc"/>
    </clipPath>
  </defs>
  <g id="Mask_Group_79" data-name="Mask Group 79" clip-path="url(#clip-path)">
    <path id="upgrade-icon" d="M17.778,1.778A16.229,16.229,0,0,0,7.716,5.333c-.462.391-.924.818-1.351,1.244L2.844,4.551a.64.64,0,0,0-.747.036.676.676,0,0,0-.284.711l1.173,7.253a.735.735,0,0,0,.356.5.686.686,0,0,0,.356.107.605.605,0,0,0,.249-.036l6.862-2.631a.748.748,0,0,0,.462-.6.671.671,0,0,0-.356-.676L7.716,7.36a11.836,11.836,0,0,1,1-.889A13.985,13.985,0,0,1,17.778,3.2,14.578,14.578,0,1,1,3.2,17.778a.711.711,0,0,0-1.422,0,16,16,0,1,0,16-16ZM4.2,11.449,3.413,6.542l2.7,1.564h0l2.7,1.564Z" transform="translate(-1.778 -1.778)" fill="#911cbc"/>
  </g>
</svg>
