<svg xmlns="http://www.w3.org/2000/svg" xmlns:xlink="http://www.w3.org/1999/xlink" width="32" height="32" viewBox="0 0 32 32">
  <defs>
    <clipPath id="clip-path">
      <rect id="Rectangle_1016" data-name="Rectangle 1016" width="32" height="32" fill="#911cbc"/>
    </clipPath>
  </defs>
  <g id="power-supply-icon" clip-path="url(#clip-path)">
    <path id="charge" d="M25.244,11.022V8.889a.711.711,0,1,1,1.422,0v2.133a.711.711,0,0,1-1.422,0ZM3.2,18.489a7.845,7.845,0,0,0,7.822,7.822H21.049a3.9,3.9,0,0,1,3.84-3.2h4.622a.713.713,0,0,1,.711.711v.711h2.133a1.426,1.426,0,0,1,1.422,1.422v2.133a1.426,1.426,0,0,1-1.422,1.422H30.222v.711a.713.713,0,0,1-.711.711H24.889a3.9,3.9,0,0,1-3.84-3.2H11.022a9.244,9.244,0,1,1,0-18.489h7.147a5.366,5.366,0,0,1,5.3-4.622h6.044a.713.713,0,0,1,.711.711v.711h2.844a.711.711,0,1,1,0,1.422H30.222v4.978h2.844a.711.711,0,1,1,0,1.422H30.222v.711a.713.713,0,0,1-.711.711H23.467a5.366,5.366,0,0,1-5.3-4.622H11.022A7.845,7.845,0,0,0,3.2,18.489ZM19.556,9.956a3.9,3.9,0,0,0,3.911,3.911H28.8V6.044H23.467A3.9,3.9,0,0,0,19.556,9.956Zm10.667,16v2.133h2.133V25.956ZM22.4,27.022a2.474,2.474,0,0,0,2.489,2.489H28.8V24.533H24.889A2.474,2.474,0,0,0,22.4,27.022Z" transform="translate(-1.778 -1.778)" fill="#911cbc"/>
  </g>
</svg>
