<svg xmlns="http://www.w3.org/2000/svg" xmlns:xlink="http://www.w3.org/1999/xlink" width="32" height="32" viewBox="0 0 32 32">
  <defs>
    <clipPath id="clip-path">
      <rect id="Rectangle_1016" data-name="Rectangle 1016" width="32" height="32" fill="#911cbc"/>
    </clipPath>
  </defs>
  <g id="raid-icon" clip-path="url(#clip-path)">
    <path id="subtitles" d="M29.511,7.822H6.044a4.27,4.27,0,0,0-4.267,4.267V23.467a4.27,4.27,0,0,0,4.267,4.267H29.511a4.27,4.27,0,0,0,4.267-4.267V12.089A4.27,4.27,0,0,0,29.511,7.822Zm2.844,15.644a2.848,2.848,0,0,1-2.844,2.844H6.044A2.848,2.848,0,0,1,3.2,23.467V12.089A2.848,2.848,0,0,1,6.044,9.244H29.511a2.848,2.848,0,0,1,2.844,2.844ZM8.889,14.222a.713.713,0,0,1,.711-.711h2.844a.711.711,0,1,1,0,1.422H9.6A.713.713,0,0,1,8.889,14.222Zm17.778,0a.713.713,0,0,1-.711.711H16a.711.711,0,0,1,0-1.422h9.956A.713.713,0,0,1,26.667,14.222ZM13.156,21.333a.713.713,0,0,1-.711.711H9.6a.711.711,0,1,1,0-1.422h2.844A.713.713,0,0,1,13.156,21.333Zm13.511,0a.713.713,0,0,1-.711.711H16a.711.711,0,0,1,0-1.422h9.956A.713.713,0,0,1,26.667,21.333Zm0-3.556a.713.713,0,0,1-.711.711H23.111a.711.711,0,1,1,0-1.422h2.844A.713.713,0,0,1,26.667,17.778Zm-17.778,0a.713.713,0,0,1,.711-.711h9.956a.711.711,0,1,1,0,1.422H9.6A.713.713,0,0,1,8.889,17.778Z" transform="translate(-1.778 -1.778)" fill="#911cbc"/>
  </g>
</svg>
