<svg xmlns="http://www.w3.org/2000/svg" xmlns:xlink="http://www.w3.org/1999/xlink" width="48" height="48" viewBox="0 0 48 48">
  <defs>
    <clipPath id="clip-path">
      <rect id="Rectangle_1101" data-name="Rectangle 1101" width="48" height="48" transform="translate(374 210)" fill="#fff"/>
    </clipPath>
  </defs>
  <g id="server" transform="translate(-374 -210)" clip-path="url(#clip-path)">
    <path id="database_2_" data-name="database (2)" d="M49.6,16a1.07,1.07,0,0,0,1.067-1.067V4.267A1.07,1.07,0,0,0,49.6,3.2H3.733A1.07,1.07,0,0,0,2.667,4.267V14.933A1.07,1.07,0,0,0,3.733,16H4.8v2.133H3.733A1.07,1.07,0,0,0,2.667,19.2V29.867a1.07,1.07,0,0,0,1.067,1.067H4.8v2.133H3.733a1.07,1.07,0,0,0-1.067,1.067V44.8a1.07,1.07,0,0,0,1.067,1.067H4.8v3.2a1.07,1.07,0,0,0,1.067,1.067h41.6a1.07,1.07,0,0,0,1.067-1.067v-3.2H49.6A1.07,1.07,0,0,0,50.667,44.8V34.133A1.07,1.07,0,0,0,49.6,33.067H48.533V30.933H49.6a1.07,1.07,0,0,0,1.067-1.067V19.2A1.07,1.07,0,0,0,49.6,18.133H48.533V16ZM4.8,5.333H48.533v8.533H4.8ZM46.4,48H6.933V45.867H46.4Zm2.133-4.267H4.8V35.2H48.533ZM46.4,33.067H6.933V30.933H46.4ZM48.533,28.8H4.8V20.267H48.533ZM46.4,18.133H6.933V16H46.4ZM6.933,10.667V8.533a1.067,1.067,0,0,1,2.133,0v2.133a1.067,1.067,0,0,1-2.133,0Zm4.267,0V8.533a1.067,1.067,0,0,1,2.133,0v2.133a1.067,1.067,0,0,1-2.133,0Zm4.267,0V8.533a1.067,1.067,0,1,1,2.133,0v2.133a1.067,1.067,0,1,1-2.133,0Zm4.267,0V8.533a1.067,1.067,0,0,1,2.133,0v2.133a1.067,1.067,0,0,1-2.133,0Zm24.533-.533V9.067a1.067,1.067,0,1,1,2.133,0v1.067a1.067,1.067,0,1,1-2.133,0ZM24,9.6a1.07,1.07,0,0,1,1.067-1.067h16a1.067,1.067,0,0,1,0,2.133h-16A1.07,1.07,0,0,1,24,9.6ZM9.067,23.467V25.6a1.067,1.067,0,0,1-2.133,0V23.467a1.067,1.067,0,0,1,2.133,0Zm4.267,0V25.6a1.067,1.067,0,0,1-2.133,0V23.467a1.067,1.067,0,0,1,2.133,0Zm4.267,0V25.6a1.067,1.067,0,0,1-2.133,0V23.467a1.067,1.067,0,0,1,2.133,0Zm4.267,0V25.6a1.067,1.067,0,0,1-2.133,0V23.467a1.067,1.067,0,0,1,2.133,0ZM46.4,24v1.067a1.067,1.067,0,1,1-2.133,0V24A1.067,1.067,0,1,1,46.4,24Zm-4.267.533A1.07,1.07,0,0,1,41.067,25.6h-16a1.067,1.067,0,0,1,0-2.133h16A1.07,1.07,0,0,1,42.133,24.533ZM9.067,38.4v2.133a1.067,1.067,0,0,1-2.133,0V38.4a1.067,1.067,0,0,1,2.133,0Zm4.267,0v2.133a1.067,1.067,0,0,1-2.133,0V38.4a1.067,1.067,0,0,1,2.133,0Zm4.267,0v2.133a1.067,1.067,0,0,1-2.133,0V38.4a1.067,1.067,0,0,1,2.133,0Zm4.267,0v2.133a1.067,1.067,0,0,1-2.133,0V38.4a1.067,1.067,0,0,1,2.133,0Zm24.533.533V40a1.067,1.067,0,0,1-2.133,0V38.933a1.067,1.067,0,0,1,2.133,0Zm-4.267.533a1.07,1.07,0,0,1-1.067,1.067h-16a1.067,1.067,0,0,1,0-2.133h16A1.07,1.07,0,0,1,42.133,39.467Z" transform="translate(371.333 207.333)" fill="#fff"/>
  </g>
</svg>
