<svg xmlns="http://www.w3.org/2000/svg" xmlns:xlink="http://www.w3.org/1999/xlink" width="32" height="32" viewBox="0 0 32 32">
  <defs>
    <clipPath id="clip-path">
      <rect id="Rectangle_1016" data-name="Rectangle 1016" width="32" height="32" transform="translate(385 3192)" fill="#186ff2"/>
    </clipPath>
  </defs>
  <g id="Mask_Group_9" data-name="Mask Group 9" transform="translate(-385 -3192)" clip-path="url(#clip-path)">
    <g id="download-speed" transform="translate(385 3192)">
      <path id="Path_1985" data-name="Path 1985" d="M32,18.227A15.947,15.947,0,0,0,27.387,7a.8.8,0,0,0-.073-.086.782.782,0,0,0-.085-.073,15.971,15.971,0,0,0-22.457,0,.806.806,0,0,0-.085.073A.786.786,0,0,0,4.613,7a15.985,15.985,0,0,0,.072,22.541h0a.787.787,0,0,0,1.113,0c.013-.013.025-.027.037-.041l2.425-2.425A.787.787,0,0,0,7.15,25.964L5.258,27.856A14.3,14.3,0,0,1,1.6,19.014H4.271a.787.787,0,1,0,0-1.574H1.6A14.369,14.369,0,0,1,5.263,8.6L7.15,10.49A.787.787,0,0,0,8.263,9.377L6.376,7.49a14.368,14.368,0,0,1,8.837-3.668V6.5a.787.787,0,1,0,1.574,0V3.822A14.368,14.368,0,0,1,25.624,7.49L23.737,9.377A.787.787,0,0,0,24.85,10.49L26.737,8.6A14.368,14.368,0,0,1,30.4,17.44H27.728a.787.787,0,0,0,0,1.574H30.4a14.3,14.3,0,0,1-3.663,8.842L24.85,25.964a.787.787,0,1,0-1.113,1.113L26.2,29.541a.787.787,0,0,0,1.113,0A15.9,15.9,0,0,0,32,18.227Z" fill="#186ff2"/>
      <path id="Path_1986" data-name="Path 1986" d="M19.615,9.2a.787.787,0,0,0-1.023.438l-2.274,5.676A2.991,2.991,0,0,0,16,15.3a2.918,2.918,0,0,0-2.611,1.6,3.128,3.128,0,0,0,.36,3.3,1.281,1.281,0,0,0,.28.28A3.358,3.358,0,0,0,16,21.156a2.918,2.918,0,0,0,2.611-1.6,3.127,3.127,0,0,0-.36-3.3,1.281,1.281,0,0,0-.28-.281c-.057-.042-.116-.08-.175-.118l2.256-5.632A.787.787,0,0,0,19.615,9.2Zm-2.406,9.637A1.351,1.351,0,0,1,16,19.582a1.752,1.752,0,0,1-1.006-.349,1.554,1.554,0,0,1-.2-1.62A1.351,1.351,0,0,1,16,16.872a1.531,1.531,0,0,1,.491.083l.016.007.052.018a2.09,2.09,0,0,1,.448.24A1.554,1.554,0,0,1,17.209,18.841Z" fill="#186ff2"/>
    </g>
  </g>
</svg>
