<svg xmlns="http://www.w3.org/2000/svg" xmlns:xlink="http://www.w3.org/1999/xlink" width="32" height="32" viewBox="0 0 32 32">
  <defs>
    <clipPath id="clip-path">
      <rect id="Rectangle_1016" data-name="Rectangle 1016" width="32" height="32" fill="#e9533a"/>
    </clipPath>
    <clipPath id="clip-path-2">
      <rect id="Rectangle_266" data-name="Rectangle 266" width="27.364" height="32" transform="translate(65.346 132.277)" fill="#e9533a" stroke="#707070" stroke-width="0.15"/>
    </clipPath>
  </defs>
  <g id="sql-icon" clip-path="url(#clip-path)">
    <g id="Mask_Group_6" data-name="Mask Group 6" transform="translate(-63.028 -132.277)" clip-path="url(#clip-path-2)">
      <g id="sql" transform="translate(65.346 134.825)">
        <path id="Path_177" data-name="Path 177" d="M24.077,0H3.3A3.3,3.3,0,0,0,0,3.3V16.482a3.3,3.3,0,0,0,3.3,3.3h7.761l-.884,3.974H8.051a1.7,1.7,0,0,0-1.7,1.7v.435H4.664a.535.535,0,1,0,0,1.069H22.131a.535.535,0,0,0,0-1.069h-1.1v-.435a1.7,1.7,0,0,0-1.7-1.7H17.2l-.884-3.974h7.761a3.3,3.3,0,0,0,3.3-3.3V3.3a3.3,3.3,0,0,0-3.3-3.3ZM3.3,1.069H24.077A2.234,2.234,0,0,1,26.287,3H1.091A2.234,2.234,0,0,1,3.3,1.069ZM19.959,25.458v.436H7.419v-.436a.633.633,0,0,1,.632-.632H19.327a.633.633,0,0,1,.632.632Zm-3.854-1.7H11.273l.884-3.974h3.064Zm7.972-5.043H3.3a2.234,2.234,0,0,1-2.21-1.927H19.118a.535.535,0,0,0,0-1.069H1.069V4.066H26.308V15.717H23.4a.535.535,0,1,0,0,1.069h2.89a2.234,2.234,0,0,1-2.21,1.927Zm0,0" fill="#e9533a"/>
        <path id="Path_178" data-name="Path 178" d="M3.817,3.7c-.682-.336-.867-.319-1.173-.593a.566.566,0,0,1-.206-.434.56.56,0,0,1,.254-.486A1.7,1.7,0,0,1,4.174,2.17a1.616,1.616,0,0,0,.421.163.366.366,0,0,0,.326-.2.545.545,0,0,0-.056-.749C4.324.92,2.149.727,1.506,1.956a1.735,1.735,0,0,0-.185.815c0,1.762,2.014,1.675,2.608,2.47a.751.751,0,0,1,.15.46c0,.876-1.34.944-1.894.4-.329-.319-.594-.508-.867-.142a.669.669,0,0,0-.151.4q0,.4.584.73A2.745,2.745,0,0,0,4.633,6.95,1.964,1.964,0,0,0,4.99,4.675,2.2,2.2,0,0,0,3.817,3.7Zm0,0" transform="translate(5.95 5.24)" fill="#e9533a"/>
        <path id="Path_179" data-name="Path 179" d="M5.42,1.507a2.177,2.177,0,0,0-1.469-.473,2.161,2.161,0,0,0-1.465.473A1.876,1.876,0,0,0,1.94,3V5.4A1.707,1.707,0,0,0,3.59,7.34V7.9a.357.357,0,0,0,.713,0V7.34A1.735,1.735,0,0,0,5.969,5.4V3a1.869,1.869,0,0,0-.55-1.5ZM4.853,5.4a.846.846,0,0,1-.55.919V5.863a.357.357,0,0,0-.713,0v.455q-.533-.172-.533-.92V3q0-.988.894-.988c.562,0,.9.324.9.988Zm0,0" transform="translate(9.901 5.277)" fill="#e9533a"/>
        <path id="Path_180" data-name="Path 180" d="M5.97,6.336h-2.1V1.378a.276.276,0,0,0-.163-.258.946.946,0,0,0-.79,0,.276.276,0,0,0-.163.258V6.963c0,.238.254.352.49.352H5.97C6.415,7.315,6.416,6.336,5.97,6.336Zm0,0" transform="translate(14.068 5.276)" fill="#e9533a"/>
        <path id="Path_181" data-name="Path 181" d="M3.931,2.575h0a.535.535,0,1,0,.536.536.535.535,0,0,0-.536-.536Zm0,0" transform="translate(17.328 13.142)" fill="#e9533a"/>
      </g>
    </g>
  </g>
</svg>
