<svg id="star-icon" xmlns="http://www.w3.org/2000/svg" xmlns:xlink="http://www.w3.org/1999/xlink" width="24" height="24" viewBox="0 0 24 24">
  <defs>
    <linearGradient id="linear-gradient" x1="0.5" x2="0.5" y2="1" gradientUnits="objectBoundingBox">
      <stop offset="0" stop-color="#009cff"/>
      <stop offset="1" stop-color="#3fa2ff"/>
    </linearGradient>
  </defs>
  <rect id="Rectangle_1094" data-name="Rectangle 1094" width="24" height="24" transform="translate(24) rotate(90)" opacity="0" fill="url(#linear-gradient)"/>
  <path id="Path_2070" data-name="Path 2070" d="M17.56,21a1,1,0,0,1-.46-.11L12,18.22,6.9,20.89a1,1,0,0,1-1.45-1.06l1-5.63-4.12-4a.985.985,0,0,1,.56-1.68l5.7-.83L11.1,2.56a1,1,0,0,1,1.8,0l2.54,5.12,5.7.83a.985.985,0,0,1,.56,1.68l-4.12,4,1,5.63A.99.99,0,0,1,17.56,21Z" fill="url(#linear-gradient)"/>
</svg>
