<svg xmlns="http://www.w3.org/2000/svg" xmlns:xlink="http://www.w3.org/1999/xlink" width="50" height="50" viewBox="0 0 50 50">
  <defs>
    <clipPath id="clip-path">
      <rect id="Rectangle_1056" data-name="Rectangle 1056" width="50" height="50" transform="translate(923 5919)" fill="#105285"/>
    </clipPath>
  </defs>
  <g id="wordpress" transform="translate(-923 -5919)" clip-path="url(#clip-path)">
    <path id="wordpress-2" data-name="wordpress" d="M44.727,14.219A22.5,22.5,0,0,1,36.3,44.427l6.865-19.848a21.254,21.254,0,0,0,1.708-8.05,17.641,17.641,0,0,0-.146-2.312M28.1,14.435c1.348-.063,2.567-.219,2.567-.219a.939.939,0,0,0-.14-1.873s-3.656.281-6,.281c-2.217,0-5.937-.312-5.937-.312a.925.925,0,0,0-.156,1.844s1.125.127,2.344.188l3.5,9.594L19.34,38.687,11.154,14.375c1.352-.063,2.571-.208,2.571-.208A.936.936,0,0,0,13.59,12.3s-3.637.288-5.988.288c-.417,0-.912-.017-1.437-.031A22.8,22.8,0,0,1,25,2.531a22.378,22.378,0,0,1,15.179,5.9c-.1-.006-.19-.019-.294-.019A3.891,3.891,0,0,0,36.11,12.4c0,1.854,1.069,3.423,2.208,5.273a11.846,11.846,0,0,1,1.854,6.2c0,1.906-.737,4.154-1.71,7.248l-2.24,7.469L28.1,14.406l0,.029ZM25,47.467a22.493,22.493,0,0,1-6.35-.91l6.744-19.6L32.3,45.892a3.352,3.352,0,0,0,.162.31A22.494,22.494,0,0,1,25,47.471M2.523,25a22.36,22.36,0,0,1,1.948-9.146L15.187,45.227A22.488,22.488,0,0,1,2.523,25M25,0A25,25,0,1,0,50,25,25.033,25.033,0,0,0,25,0" transform="translate(923 5919)" fill="#105285"/>
  </g>
</svg>
