<svg xmlns="http://www.w3.org/2000/svg" xmlns:xlink="http://www.w3.org/1999/xlink" viewBox="0 0 38 38">
              <path d="M0,19A19,19,0,1,0,19,0,19,19,0,0,0,0,19Zm1.464,0a17.5,17.5,0,0,1,1.519-7.137l8.365,22.917A17.535,17.535,0,0,1,1.464,19ZM19,36.535a17.555,17.555,0,0,1-4.954-.712l5.263-15.287L24.7,35.3a1.583,1.583,0,0,0,.124.239A17.442,17.442,0,0,1,19,36.535ZM33.172,18.671a16.563,16.563,0,0,0,1.335-6.28,13.047,13.047,0,0,0-.121-1.8,17.54,17.54,0,0,1-6.569,23.569Zm-3.781-5.393a9.247,9.247,0,0,1,1.447,4.836,16.363,16.363,0,0,1-1.335,5.67l-1.75,5.842L21.415,10.779c1.058-.058,2.006-.167,2.006-.167a.725.725,0,0,0-.11-1.446s-2.841.224-4.675.224c-1.723,0-4.617-.224-4.617-.224a.726.726,0,0,0-.112,1.446s.9.11,1.842.167l2.729,7.485L14.642,29.771,8.255,10.779c1.058-.058,2.009-.167,2.009-.167a.726.726,0,0,0-.112-1.446s-2.839.224-4.675.224c-.329,0-.715-.009-1.127-.02A17.526,17.526,0,0,1,30.84,6.07c-.075-.006-.15-.015-.225-.015A3.033,3.033,0,0,0,27.67,9.166C27.67,10.613,28.5,11.835,29.391,13.279Z" fill="#fff"></path>
            </svg>